<svg width="68" height="38" viewBox="0 0 68 38" fill="none" xmlns="http://www.w3.org/2000/svg">
<g clip-path="url(#clip0_211_2)">
<path d="M29.9281 25.5793H33.266C33.3728 26.4605 33.8268 27.1726 34.6279 27.7155C35.4289 28.2496 36.4214 28.5166 37.6052 28.5166C38.7623 28.5166 39.7059 28.2585 40.4357 27.7422C41.1745 27.226 41.5439 26.5673 41.5439 25.7662C41.5439 25.072 41.2769 24.5112 40.7428 24.084C40.2088 23.6478 39.3365 23.2873 38.1259 23.0025L35.6292 22.415C33.8579 22.0056 32.5406 21.3692 31.6772 20.5058C30.8227 19.6424 30.3954 18.5209 30.3954 17.1412C30.3954 15.4411 31.063 14.0615 32.3982 13.0023C33.7333 11.943 35.4556 11.4134 37.5652 11.4134C39.6836 11.4134 41.3881 11.9386 42.6788 12.9889C43.9783 14.0303 44.6503 15.4011 44.6948 17.1012H41.4104C41.3303 16.2022 40.9431 15.499 40.2488 14.9916C39.5545 14.4754 38.6511 14.2172 37.5385 14.2172C36.4526 14.2172 35.5714 14.462 34.8949 14.9516C34.2273 15.4411 33.8935 16.0864 33.8935 16.8875C33.8935 17.5284 34.1517 18.0491 34.6679 18.4496C35.1931 18.8502 36.0476 19.1929 37.2314 19.4777L39.4477 19.9851C41.397 20.4301 42.8123 21.0799 43.6935 21.9344C44.5747 22.7889 45.0153 23.9326 45.0153 25.3657C45.0153 27.1904 44.3299 28.6412 42.9592 29.7183C41.5973 30.7864 39.7504 31.3204 37.4183 31.3204C35.1931 31.3204 33.404 30.8086 32.051 29.785C30.707 28.7525 29.9994 27.3506 29.9281 25.5793ZM47.3651 31V16.8475H50.6896V31H47.3651ZM50.3291 14.4709C49.9731 14.8181 49.537 14.9916 49.0207 14.9916C48.5045 14.9916 48.0683 14.8181 47.7123 14.4709C47.3562 14.1149 47.1782 13.6876 47.1782 13.1892C47.1782 12.6818 47.3562 12.2546 47.7123 11.9074C48.0683 11.5514 48.5045 11.3734 49.0207 11.3734C49.537 11.3734 49.9731 11.5514 50.3291 11.9074C50.6941 12.2546 50.8766 12.6818 50.8766 13.1892C50.8766 13.6876 50.6941 14.1149 50.3291 14.4709ZM58.7673 31.227C56.9782 31.227 55.5496 30.5683 54.4814 29.251C53.4222 27.9336 52.8926 26.1534 52.8926 23.9104C52.8926 21.6762 53.4222 19.9005 54.4814 18.5832C55.5496 17.2658 56.9782 16.6071 58.7673 16.6071C59.7642 16.6071 60.6454 16.843 61.4108 17.3148C62.1852 17.7865 62.7638 18.4229 63.1465 19.224H63.2266V11.7339H66.5511V31H63.2934V28.5834H63.24C62.8483 29.3934 62.2564 30.0387 61.4642 30.5193C60.681 30.9911 59.782 31.227 58.7673 31.227ZM59.7686 19.3442C58.7005 19.3442 57.8549 19.7581 57.2318 20.5859C56.6088 21.4048 56.2972 22.5174 56.2972 23.9237C56.2972 25.339 56.6043 26.4561 57.2185 27.2749C57.8416 28.0938 58.6916 28.5033 59.7686 28.5033C60.8189 28.5033 61.6601 28.0894 62.292 27.2616C62.924 26.4338 63.24 25.3212 63.24 23.9237C63.24 22.5352 62.924 21.427 62.292 20.5992C61.6601 19.7625 60.8189 19.3442 59.7686 19.3442Z" fill="black"/>
<g clip-path="url(#clip1_211_2)">
<path d="M1.66203 25.9234C2.69748 28.6425 4.77568 30.8496 7.40615 32.0561C7.42036 32.0644 7.43451 32.071 7.45043 32.0761C8.83921 32.7057 10.3786 33.0593 12 33.0593C13.3504 33.0593 14.6445 32.8151 15.8419 32.37C15.872 32.365 15.9 32.3538 15.9265 32.3366C18.6331 31.3049 20.8322 29.2403 22.0414 26.6263C22.0648 26.5977 22.0796 26.5638 22.0868 26.5261C22.7097 25.1435 23.0594 23.6123 23.0594 22.0001C23.0594 15.9019 18.0981 10.9407 12 10.9407C10.6357 10.9407 9.32908 11.1907 8.12138 11.6444C8.11917 11.6453 8.11707 11.646 8.11491 11.647C5.3793 12.677 3.15805 14.7614 1.94549 17.4025C1.93797 17.4156 1.93167 17.4288 1.92692 17.4436C1.29532 18.8341 0.940552 20.376 0.940552 22.0001C0.940552 23.3547 1.18653 24.6527 1.63428 25.8533C1.63937 25.8781 1.64854 25.9011 1.66203 25.9234ZM7.29145 31.5004C4.94228 30.3314 3.08674 28.3171 2.12271 25.8576L7.29145 20.6835V31.5004ZM12 32.6065C10.4868 32.6065 9.04794 32.2857 7.74428 31.7123V24.4017L15.3842 32.0496C14.3205 32.4088 13.1832 32.6065 12 32.6065ZM15.8535 31.8787L10.6914 26.7113H21.499C20.3291 29.0603 18.3139 30.9156 15.8535 31.8787ZM22.6065 22.0001C22.6065 23.5143 22.2854 24.9541 21.7112 26.2584H14.4066L22.0476 18.6096C22.4081 19.675 22.6065 20.8145 22.6065 22.0001ZM16.7082 12.4995C19.0569 13.6682 20.9121 15.6817 21.8763 18.1404L16.7082 23.3138V12.4995ZM13.8018 26.2233C13.7914 26.2337 13.7863 26.2467 13.7784 26.2584H10.283C10.2701 26.2584 10.2588 26.2637 10.2465 26.2658L7.77944 23.7962C7.76905 23.7858 7.756 23.7808 7.74428 23.7728V20.2861C7.74428 20.2696 7.73826 20.2551 7.73488 20.2396L10.1979 17.7741C10.2083 17.7637 10.2133 17.7506 10.2212 17.7389H13.7164C13.7295 17.7389 13.7409 17.7336 13.7533 17.7315L16.2203 20.2009C16.2306 20.2113 16.2437 20.2164 16.2554 20.2243V23.711C16.2554 23.7276 16.2614 23.7422 16.2648 23.7577L13.8018 26.2233ZM12 11.3935C13.513 11.3935 14.9519 11.7142 16.2554 12.2876V19.5954L8.61755 11.9497C9.68064 11.591 10.8174 11.3935 12 11.3935ZM8.14814 12.1205L13.3084 17.2861H2.50224C3.67262 14.9377 5.68786 13.0831 8.14814 12.1205ZM2.29003 17.7389H9.59308L1.95157 25.3882C1.59155 24.3235 1.39338 23.1848 1.39338 22.0001C1.39338 20.4849 1.71504 19.044 2.29003 17.7389Z" fill="black"/>
</g>
</g>
<defs>
<clipPath id="clip0_211_2">
<rect width="68" height="38" fill="white"/>
</clipPath>
<clipPath id="clip1_211_2">
<rect width="24" height="24" fill="white" transform="translate(0 10)"/>
</clipPath>
</defs>
</svg>
